<mxfile host="Electron" agent="Mozilla/5.0 (Windows NT 10.0; Win64; x64) AppleWebKit/537.36 (KHTML, like Gecko) draw.io/24.7.5 Chrome/126.0.6478.183 Electron/31.3.0 Safari/537.36" version="24.7.5">
  <diagram name="C4 Context Diagram" id="MEMCtg0N6xryD90iMHeG">
    <mxGraphModel dx="1034" dy="511" grid="1" gridSize="10" guides="1" tooltips="1" connect="1" arrows="1" fold="1" page="1" pageScale="1" pageWidth="827" pageHeight="1169" math="0" shadow="0">
      <root>
        <mxCell id="0" />
        <mxCell id="1" parent="0" />
        <object placeholders="1" c4Name="Solutions Architect" c4Type="Person" c4Description="Creates solution proposals using an AI assistant" label="&lt;font style=&quot;font-size: 16px&quot;&gt;&lt;b&gt;Solutions Architect&lt;/b&gt;&lt;/font&gt;&lt;div&gt;[Person]&lt;/div&gt;&lt;br&gt;&lt;div&gt;&lt;font style=&quot;font-size: 11px&quot;&gt;&lt;font color=&quot;#fff&quot;&gt;Creates solution proposals using an AI assistant&lt;/font&gt;&lt;/div&gt;" id="Person1">
          <mxCell style="shape=mxgraph.c4.person;whiteSpace=wrap;html=1;fillColor=#808080;strokeColor=#b08f00;align=center;fontColor=#ffffff;" parent="1" vertex="1">
            <mxGeometry x="40" y="115" width="140" height="150" as="geometry" />
          </mxCell>
        </object>
        <object placeholders="1" c4Name="AI Assistant" c4Type="Software System" c4Description="Intelligent assistant that creates solution proposals" label="&lt;font style=&quot;font-size: 16px&quot;&gt;&lt;b&gt;AI Assistant&lt;/b&gt;&lt;/font&gt;&lt;div&gt;[Software System]&lt;/div&gt;&lt;br&gt;&lt;div&gt;&lt;font style=&quot;font-size: 11px&quot;&gt;&lt;font color=&quot;#fff&quot;&gt;Intelligent assistant that creates solution proposals&lt;/font&gt;&lt;/div&gt;" id="AIAssistant">
          <mxCell style="html=1;fontSize=11;dashed=0;whiteSpace=wrap;fillColor=#FF660D;strokeColor=#0b4884;fontColor=#ffffff;shape=mxgraph.c4.system;align=center;metaEdit=1;" parent="1" vertex="1">
            <mxGeometry x="370" y="100" width="200" height="180" as="geometry" />
          </mxCell>
        </object>
        <object placeholders="1" c4Name="Google Presentation" c4Type="Software System" c4Description="External system where presentations are created" label="&lt;font style=&quot;font-size: 16px&quot;&gt;&lt;b&gt;Google Presentation&lt;/b&gt;&lt;/font&gt;&lt;div&gt;[Software System]&lt;/div&gt;&lt;br&gt;&lt;div&gt;&lt;font style=&quot;font-size: 11px&quot;&gt;&lt;font color=&quot;#fff&quot;&gt;External system where presentations are created&lt;/font&gt;&lt;/div&gt;" id="GooglePresentation">
          <mxCell style="rounded=1;whiteSpace=wrap;html=1;labelBackgroundColor=none;fillColor=#8C8496;fontColor=#ffffff;align=center;arcSize=10;strokeColor=#736782;metaEdit=1;resizable=0;" parent="1" vertex="1">
            <mxGeometry x="720" y="15" width="200" height="100" as="geometry" />
          </mxCell>
        </object>
        <object placeholders="1" c4Name="Google Drive" c4Type="Software System" c4Description="External system where the presentation is saved" label="&lt;font style=&quot;font-size: 16px&quot;&gt;&lt;b&gt;Google Drive&lt;/b&gt;&lt;/font&gt;&lt;div&gt;[Software System]&lt;/div&gt;&lt;br&gt;&lt;div&gt;&lt;font style=&quot;font-size: 11px&quot;&gt;&lt;font color=&quot;#fff&quot;&gt;External system where the presentation is saved&lt;/font&gt;&lt;/div&gt;" id="GoogleDrive">
          <mxCell style="rounded=1;whiteSpace=wrap;html=1;labelBackgroundColor=none;fillColor=#8C8496;fontColor=#ffffff;align=center;arcSize=10;strokeColor=#736782;metaEdit=1;resizable=0;" parent="1" vertex="1">
            <mxGeometry x="720" y="280" width="200" height="100" as="geometry" />
          </mxCell>
        </object>
        <mxCell id="edge1" value="Uses" style="edgeStyle=orthogonalEdgeStyle;rounded=0;html=1;orthogonalLoop=1;jettySize=auto;" parent="1" source="Person1" target="AIAssistant" edge="1">
          <mxGeometry relative="1" as="geometry" />
        </mxCell>
        <mxCell id="edge2" value="Creates presentation" style="edgeStyle=orthogonalEdgeStyle;rounded=0;html=1;orthogonalLoop=1;jettySize=auto;" parent="1" source="AIAssistant" target="GooglePresentation" edge="1">
          <mxGeometry relative="1" as="geometry" />
        </mxCell>
        <mxCell id="edge3" value="Saves presentation" style="edgeStyle=orthogonalEdgeStyle;rounded=0;html=1;orthogonalLoop=1;jettySize=auto;" parent="1" source="AIAssistant" target="GoogleDrive" edge="1">
          <mxGeometry relative="1" as="geometry" />
        </mxCell>
      </root>
    </mxGraphModel>
  </diagram>
</mxfile>
